<?xml version="1.0" standalone="no"?>
<!DOCTYPE svg PUBLIC "-//W3C//DTD SVG 20010904//EN"
 "http://www.w3.org/TR/2001/REC-SVG-20010904/DTD/svg10.dtd">
<svg version="1.0" xmlns="http://www.w3.org/2000/svg"
 width="512.000000pt" height="512.000000pt" viewBox="0 0 512.000000 512.000000"
 preserveAspectRatio="xMidYMid meet">
<metadata>
Created by potrace 1.14, written by Peter Selinger 2001-2017
</metadata>
<g transform="translate(0.000000,512.000000) scale(0.100000,-0.100000)"
fill="#000000" stroke="none">
<path d="M3735 4361 c-44 -15 -143 -56 -220 -90 -77 -35 -302 -133 -500 -218
-198 -85 -454 -199 -570 -253 -187 -87 -464 -207 -845 -365 -69 -29 -145 -62
-170 -75 -59 -29 -162 -104 -219 -158 -25 -24 -58 -52 -73 -63 -15 -11 -48
-51 -73 -89 -146 -219 -121 -451 62 -576 57 -39 224 -103 408 -156 39 -11 84
-26 100 -34 17 -8 156 -55 310 -105 357 -116 793 -269 1015 -357 l174 -69 -44
-7 c-191 -27 -565 -35 -775 -16 -314 29 -645 90 -1077 199 -259 66 -267 67
-262 45 3 -12 52 -192 108 -400 l102 -377 89 -45 c161 -80 74 -74 1013 -72
690 1 847 4 868 15 29 15 654 560 791 689 71 67 90 92 128 170 60 122 83 239
66 333 -13 73 -37 124 -74 164 -14 15 -37 50 -52 79 -54 106 -182 197 -330
235 -54 14 -84 14 -290 0 -218 -14 -826 -37 -1310 -50 -121 -3 -256 -8 -300
-11 l-80 -6 25 27 c50 53 409 211 593 260 259 70 791 135 1115 135 128 0 135
3 153 53 13 38 17 42 51 45 24 2 39 9 42 20 3 9 68 223 146 476 78 252 139
460 137 462 -2 3 -15 0 -28 -5 -24 -9 -25 -8 -24 48 0 67 -28 128 -71 153 -28
16 -32 15 -109 -11z m49 -118 c-13 -43 -29 -95 -34 -115 -7 -26 -20 -43 -40
-53 -15 -8 -289 -127 -608 -264 -318 -137 -813 -356 -1098 -485 l-519 -236
-75 -78 c-142 -145 -205 -267 -198 -382 2 -36 11 -80 21 -99 9 -19 17 -36 17
-38 0 -11 -79 44 -118 81 -83 78 -110 179 -78 289 21 72 116 214 198 294 62
62 68 65 538 279 336 154 1985 876 2017 884 1 0 -9 -35 -23 -77z m18 -1591
c57 -28 137 -97 125 -108 -2 -2 -19 1 -38 6 -58 17 -435 11 -1264 -20 -439
-17 -815 -27 -835 -24 -19 4 -47 13 -62 20 -28 15 -78 73 -78 92 0 14 75 18
760 42 327 12 615 22 640 24 25 2 189 2 365 2 l320 -1 67 -33z m-2326 -861
c273 -64 553 -112 834 -143 154 -17 692 -16 780 1 36 7 90 24 121 38 59 26 69
42 69 110 0 22 3 24 26 19 47 -12 114 -48 129 -69 8 -12 15 -44 15 -71 0 -45
-4 -53 -43 -90 -24 -23 -61 -47 -85 -54 -130 -39 -632 -41 -947 -3 -259 31
-616 97 -845 156 -30 8 -105 25 -166 38 l-111 24 19 -86 c10 -47 39 -161 63
-253 25 -92 45 -170 45 -173 0 -3 -28 -5 -62 -3 l-62 3 -29 90 c-36 114 -137
508 -137 534 0 21 13 19 386 -68z"/>
</g>
</svg>
