<svg xmlns="http://www.w3.org/2000/svg" width="20.64" height="17.575" viewBox="0 0 20.64 17.575">
  <g transform="translate(-29.5 -26.5)">
    <path id="Tracé_3" data-name="Tracé 3" d="M20.447,9.04H4.18L9.955,3.265a.562.562,0,0,0,.019-.795h0l-.019-.019-.407-.418a.6.6,0,0,0-.825,0L1.263,9.5a.6.6,0,0,0,0,.825l7.425,7.948a.6.6,0,0,0,.825,0l.407-.407a.6.6,0,0,0,0-.825L4.191,10.736H20.447a.291.291,0,0,0,.29-.29V9.33A.291.291,0,0,0,20.447,9.04Z" transform="translate(28.902 25.132)" fill="#fff"/>
    <path id="Tracé_3_-_Contour" data-name="Tracé 3 - Contour" d="M9.135,1.367a1.093,1.093,0,0,1,.758.3l.013.013.429.44a1.062,1.062,0,0,1-.03,1.5L5.387,8.54h15.06a.791.791,0,0,1,.79.79v1.115a.791.791,0,0,1-.79.79H5.321l4.966,5.47a1.1,1.1,0,0,1-.005,1.51l-.008.008-.415.415a1.1,1.1,0,0,1-1.516,0l-.02-.02L.9,10.673a1.1,1.1,0,0,1,0-1.513l.008-.008,7.468-7.48A1.093,1.093,0,0,1,9.135,1.367ZM9.2,2.391a.1.1,0,0,0-.128,0L1.622,9.852a.1.1,0,0,0,0,.132l0,0L9.04,17.921a.1.1,0,0,0,.126,0l.4-.4a.1.1,0,0,0,0-.132l-.009-.009L3.062,10.236H20.238v-.7H2.972L9.61,2.9a.062.062,0,0,0,0-.086L9.6,2.8Z" transform="translate(28.902 25.132)" fill="#feffff"/>
  </g>
</svg>
