<svg xmlns="http://www.w3.org/2000/svg" width="22.619" height="21.63" viewBox="0 0 22.619 21.63">
  <g id="Groupe_1" data-name="Groupe 1" transform="translate(-1 -18)">
    <path id="Tracé_1" data-name="Tracé 1" d="M22.912,18H1.707A.822.822,0,0,0,1,18.9V38.729a.822.822,0,0,0,.707.9H22.912a.822.822,0,0,0,.707-.9V18.9A.822.822,0,0,0,22.912,18Zm-.707,17.459-3.726-4.751a1.211,1.211,0,0,0-2,0l-2.171,2.769L8.968,26.665a1.211,1.211,0,0,0-2,0L2.414,32.474V19.8H22.205Z" fill="#fff"/>
    <circle id="Ellipse_1" data-name="Ellipse 1" cx="2.433" cy="2.433" r="2.433" transform="translate(14.606 22.146)" fill="#fff"/>
  </g>
</svg>
