<svg xmlns="http://www.w3.org/2000/svg" width="25.064" height="25.35" viewBox="0 0 25.064 25.35">
  <path id="Tracé_4" data-name="Tracé 4" d="M38.989,18.072H32.9V16.747A1.789,1.789,0,0,0,30.969,15.1H24.094a1.789,1.789,0,0,0-1.933,1.647v1.325H16.074a1.074,1.074,0,0,0,0,2.148H17.4l1.325,16.685A3.584,3.584,0,0,0,22.3,40.45H32.723a3.584,3.584,0,0,0,3.58-3.545l1.361-16.649h1.325a1.055,1.055,0,0,0,1.074-1.074A1.085,1.085,0,0,0,38.989,18.072Zm-14.68-.824h6.445v.824H24.309Zm.43,17.437H24.7a1.1,1.1,0,0,1-1.074-1.038l-.394-8.736a1.035,1.035,0,0,1,1.038-1.11h.036a1.1,1.1,0,0,1,1.074,1.038l.394,8.736A1.1,1.1,0,0,1,24.739,34.685Zm6.7-1.038a1.1,1.1,0,0,1-1.074,1.038h-.036a1.1,1.1,0,0,1-1.038-1.11l.394-8.736A1.1,1.1,0,0,1,30.754,23.8h.036a1.1,1.1,0,0,1,1.038,1.11Z" transform="translate(-15 -15.1)" fill="#0045b2"/>
</svg>
