<svg xmlns="http://www.w3.org/2000/svg" width="21.63" height="21.63" viewBox="0 0 21.63 21.63">
  <path id="Tracé_10" data-name="Tracé 10" d="M11.815,1A10.815,10.815,0,1,0,22.63,11.815,10.815,10.815,0,0,0,11.815,1Zm-.2,2.907a1.837,1.837,0,0,1,1.935,1.734c0,.058,0,.116,0,.174a1.8,1.8,0,0,1-1.655,1.936,1.952,1.952,0,0,1-.281,0A1.829,1.829,0,0,1,9.676,6.036a2,2,0,0,1,0-.22,1.837,1.837,0,0,1,1.76-1.91C11.5,3.9,11.554,3.9,11.612,3.907ZM14.519,17.9a.676.676,0,0,1-.676.676H9.787a.676.676,0,0,1-.676-.676V16.547a.676.676,0,0,1,.676-.676h.676V11.815H9.787a.676.676,0,0,1-.676-.676V9.787a.676.676,0,0,1,.676-.676h2.7a.676.676,0,0,1,.676.676v6.083h.676a.676.676,0,0,1,.676.676Z" transform="translate(-1 -1)" fill="#fff"/>
</svg>
