<svg id="Calque_1" data-name="Calque 1" xmlns="http://www.w3.org/2000/svg" viewBox="0 0 500 241"><defs><style>.cls-1{font-size:71.5px;font-family:Overpass-Regular, Overpass;letter-spacing:0.04em;}.cls-2{letter-spacing:0.05em;}.cls-3{letter-spacing:0.02em;}.cls-4{letter-spacing:0.04em;}.cls-5{letter-spacing:0.05em;}.cls-6{fill:#f04c53;}.cls-7{fill:#fff;}.cls-8{font-size:31.78px;font-family:Overpass-Bold, Overpass;font-weight:700;letter-spacing:-0.02em;}.cls-9{letter-spacing:-0.04em;}</style></defs><text class="cls-1" transform="translate(19.62 202.57)">C<tspan class="cls-2" x="49.19" y="0">OLL</tspan><tspan class="cls-3" x="192.25" y="0">E</tspan><tspan class="cls-4" x="236.58" y="0">C</tspan><tspan class="cls-5" x="285.77" y="0">TION</tspan></text><path class="cls-6" d="M225.93,100.93c-1,8.58-4.08,16.5-9.58,24.89-1.68-7.3-3-13.5-4.53-19.67-1.1-4.54-2.39-5.32-8-4.7-1.64,7.78-1,15.92-1.46,24-.46,7.87-.87,15.75-1.31,23.95a47.31,47.31,0,0,1-12.13.35c-1.17-20-2.33-39.86-3.51-60,5.9-1.84,11.69-2.36,17.1-3.3,2.19,2.55.68,5.2,1.68,7.73,2.92-.18,4.76-2.66,7.27-3.69C220.78,86.6,227.13,91,225.93,100.93Z"/><path class="cls-6" d="M167.1,80c-1.45,17.81-3.75,35.61-4.48,53.56,4.2,1.27,7.12.39,9.63-2.13l3.45-1c.75,4.87-.77,9.44-1,14.39-6.16,4.31-12.63,7.49-20.56,5.53-5.6-3.44-7.63-8.31-7.56-15,.37-34,.35-67.92.47-101.87,0-1.76,0-3.52,0-5.75L172.93,16.9c-1.22,14.32-2.36,27.7-3.51,41.27,4.51.81,8.31-.84,13.05-1-.63,6.92-1.23,13.55-1.86,20.55C176.11,78.54,171.65,78.26,167.1,80Z"/><path class="cls-6" d="M472.43,121.46l-46,6.12c8.92,10.72,21.29,11.07,43.08,1.52a12,12,0,0,1,1.64,6.85c-13.42,11.27-34.05,16-47.44-.79v0h0c-9-13.08-7.49-25.76,1.45-38.16a60.33,60.33,0,0,1,12.62-11.19c5.52-2.87,11.16-5.12,17.58-5,7.59.14,10.92,1.29,17.1,6.7Z"/><path class="cls-6" d="M134.4,114.21a22.49,22.49,0,0,1-6.7,11.89c-9.89,8.77-19.85,17.45-29.3,25.74H32.73a232,232,0,0,1-6.55-24.45c3.32.73,6,1.25,8.66,1.91,20.38,5,40.94,8.52,62.05,7.17,4-.25,7.91-.57,11.27-2.91,1.19-5.46.67-6.73-4.32-8.35-5.64-1.82-11.39-3.31-17.1-4.94Q62,113.21,37.27,106.15a31.51,31.51,0,0,1-5-1.66c-8.06-3.82-10-11-5.08-18.51,1.09-1.64,2.32-3.18,3.48-4.77l3.93-4,39-17.78,55-23.68c-3.87,12.55-7.5,24.35-11.22,36.42-6.07.69-11.95,1.31-17.82,2-16.87,2.11-33.41,5.56-48.88,13C47,89,43,90.59,41.16,94.69c2.16,5,6.35,4.45,10.22,4.32,16.75-.57,33.49-1.27,50.24-1.85q9.59-.33,19.18-.37C131.35,96.75,136.91,103.94,134.4,114.21Z"/><path class="cls-6" d="M407.5,66.87c0-1.75.31-3.54-1.06-5-1.36-1.06-2.95-.71-4.45-.67a24.07,24.07,0,0,0-4.56.54C383.16,65,373,74.06,364.38,85.27,358.08,93.5,353.55,102.78,349,112l-2.7,6.57c-1.3,5.54-2.43,11.14-3.94,16.63-1.76,6.44-.47,11.68,5.15,15.53,6.06,2.32,11.35-.07,16.28-3a87.84,87.84,0,0,0,23-19.59c2.58-3.1,4.49-6.84,8.69-10.22-1.71,11.16-3.36,21.08-4.67,31a14.29,14.29,0,0,1-2.67,6.55c-5.94,8.61-13.82,13.87-24.9,14.17l3.92,4.78,2.69,2.57c17.7,2.34,37.9-16.17,37.83-35Q407.48,104.47,407.5,66.87Zm-12.89,39.31c-1.22,4.68-5.58,6.45-8.79,9.19-9.43,8-20.62,10.35-32.71,9.25a13.46,13.46,0,0,1-5.54-1.87c4.05-15.33,34.71-34.26,49.2-30.44C398.82,97.06,397.92,102.78,394.61,106.18Z"/><path class="cls-6" d="M330.86,145.53c-2.13-11.12-5.16-21.74-10.14-31.81-2.45-4.94-5.64-8.77-11.84-10.35-2.39,14.78-3.31,29.57-5.16,44.48a24.75,24.75,0,0,1-10.87.57c-1.39-20.53-2.69-40.84-3.22-62,7.2.34,13.52-1.82,20.13-1.4,1.44,2.75-.71,5.36.41,8.2,1.93-.66,2.71-2.56,4.05-3.76,8.84-8,18.91-5.44,22.67,5.91a37.8,37.8,0,0,1,1.74,10.37A89.54,89.54,0,0,1,330.86,145.53Z"/><path class="cls-6" d="M272.79,69.48c-.36-3.72-3.16-5.64-5.85-7.44a32.41,32.41,0,0,0-14.51-5.54,6.71,6.71,0,0,0-5.77.27,39,39,0,0,0-17.72,8.06c-.55,3.58-1.72,6.93-.5,10.78,13.12-7,25.1-6.07,35.67,4.69l1.34,1.19A5,5,0,0,1,266.7,88a17,17,0,0,1-5.5,2.75,121.67,121.67,0,0,0-26.53,22.36l-7.77,13.3c-.51,1.92-1.09,3.81-1.5,5.74-2.28,10.7,5.85,18.74,16.56,16.57,5.3-1.07,9.91-3.52,14.45-6.24,1.24-.75,2.12-2.43,4.09-1.67,1.4,2.72-.73,6.05,1,8.5h12V93.42C273.72,85.43,274.08,77.43,272.79,69.48Zm-5.89,51.93c-.42,1.25-.57,2.67-2,3.32A25.87,25.87,0,0,1,249,134.51c-8.32,1.77-14.7-1.46-18.91-9.32,0-1.79,1.35-2.66,2.61-3.56,6.28-4.46,12.76-8.65,20.22-10.84C261.34,108.33,267.79,113.34,266.9,121.41Z"/><path d="M227.28,90.22c-5.93-9.3-13.81-5.59-20.7-4.46-2.6-.61-2.88-3.25-5.6-4.11-6.76.12-13.92,1.61-21,3.6,1.35,21.47,2.65,42.25,3.94,62.81l6.46,4c3.95-.77,8.43,1.27,13.08-1.73-.2-15.57,1.87-31.29,1.39-48.61,5.26,8.57,2.94,18.44,9.52,25.89C222.78,115.75,229.14,104.12,227.28,90.22Zm-18.46,12.93c-1.1-4.54-2.39-5.32-8-4.7-1.64,7.78-1,15.92-1.46,24-.46,7.87-.87,15.75-1.31,23.95a47.31,47.31,0,0,1-12.13.35c-1.17-20-2.33-39.86-3.51-60,5.9-1.84,11.69-2.36,17.1-3.3,2.19,2.55.68,5.2,1.68,7.73,2.92-.18,4.76-2.66,7.27-3.69,9.32-3.84,15.67.6,14.47,10.49-1,8.58-4.08,16.5-9.58,24.89C211.67,115.52,210.31,109.32,208.82,103.15Z"/><path d="M175.8,79.58c2.09-.44,4.46.31,6.18-1.49,2.66-19.94,2.66-19.94-1.1-26.12-2.87-1.56-5.53,1.63-8.88,0-1.11-13,4.86-26.1,1.33-39.22-5.15-.94-18.89,4.16-30.85,11.21-.27,5.32-.74,10.8-.8,16.29-.19,18.07-.27,36.15-.34,54.22-.06,13.45-.12,26.89,0,40.34.05,7.53,2.52,10.86,9.21,13.3,8.89,6.13,17,2.65,25.25-1.86,1.14-7.63,3.59-15.07-1.55-21.89-3.2.19-4.53,1.65-5,4.07-1.52-.81-3.6.62-4.9-1.27,1.69-15.42,2.66-31,5.08-46.08C172,80.47,173.87,80,175.8,79.58Zm-6.55,48.85,3.45-1c.75,4.87-.77,9.44-1,14.39-6.16,4.31-12.63,7.49-20.56,5.53-5.6-3.44-7.63-8.31-7.56-15,.37-34,.35-67.92.47-101.87,0-1.76,0-3.52,0-5.75L169.93,13.9c-1.22,14.32-2.36,27.7-3.51,41.27,4.51.81,8.31-.84,13.05-1-.63,6.92-1.23,13.55-1.86,20.55-4.5.86-9,.58-13.51,2.32-1.45,17.81-3.75,35.61-4.48,53.56C163.82,131.83,166.74,131,169.25,128.43Z"/><path d="M463,77.54c-10.63-4.42-20.09-1.38-29.2,4.27-5.24,2.67-10.13,5.72-12.44,11.55-10,10.93-11.26,24.25-5.12,35,1,1.72,1.36,4.47,4.48,3.8-9-13.08-7.49-25.76,1.45-38.16a60.33,60.33,0,0,1,12.62-11.19c5.52-2.87,11.16-5.12,17.58-5,7.59.14,10.92,1.29,17.1,6.7v34l-46,6.12c8.92,10.72,21.29,11.07,43.08,1.52a12,12,0,0,1,1.64,6.85c-13.42,11.27-34.05,16-47.44-.79v0h0c-.71,1.94.2,3.43,1.43,4.74,4.64,4.94,10.22,8.73,17,9.35a44.57,44.57,0,0,0,34.29-10.8c.81-5.21-2.27-8.43-4.87-11.57,1.88-1.7,4.39-.24,6.07-2.74V86.68A28.41,28.41,0,0,0,463,77.54ZM433.61,129c9.09-3.62,18.87-3,28.34-4.32C453.18,130.65,443.79,132.54,433.61,129Z"/><path d="M275.33,133.13c0-18.94-.65-37.9-.09-56.82.26-8.66-3.28-14.39-9.73-18.84a33.16,33.16,0,0,0-19.78-6.2c-6.23.1-11.46,2.73-16.75,5.4s-8.52,12.49-6,18.1c1.5.9,2.89,2.09,5.13,1.76,6.13-3.22,12.78-5.11,20.06-3.24,4.26,1.1,8.2,3,12.23,4.73a1.64,1.64,0,0,0,1.23,1.41c2.12,4.49-2,5.33-4.24,7.28A72.1,72.1,0,0,0,230.58,109a33.42,33.42,0,0,0-7.79,13.46c-2.65,5-4.18,10.14-2.79,15.82,8.32,11.42,14.83,12.54,34.47,5.89,1.17,1.31.63,3.49,3,5.09a98.4,98.4,0,0,0,18.12-.15C277.27,143.53,275.33,138.34,275.33,133.13Zm-4.86-42.71v55.84h-12c-1.74-2.45.39-5.78-1-8.5-2-.76-2.85.92-4.09,1.67-4.54,2.72-9.15,5.17-14.45,6.24-10.71,2.17-18.84-5.87-16.56-16.57.41-1.93,1-3.82,1.5-5.74l7.77-13.3A121.67,121.67,0,0,1,258.2,87.7,17,17,0,0,0,263.7,85a5,5,0,0,0-1.25-6.46l-1.34-1.19c-10.57-10.76-22.55-11.65-35.67-4.69-1.22-3.85-.05-7.2.5-10.78a39,39,0,0,1,17.72-8.06,6.71,6.71,0,0,1,5.77-.27A32.41,32.41,0,0,1,263.94,59c2.69,1.8,5.49,3.72,5.85,7.44C271.08,74.43,270.72,82.43,270.47,90.42Z"/><path d="M121.73,91.55c-1-.31-2.13-.5-3.19-.75-6.79.41-13.57,1-20.37,1.2-17.12.64-34.25,1.16-51.38,1.66-1.16,0-2.55.64-4.16-1.3,23.6-11.54,48.54-14.15,74.05-14.73l6.49-19.2a193.89,193.89,0,0,0,6-19.47c1.07-3.86-.43-7.24-3.25-8.49l-3.61,1-4.36,1.87L105.15,39c-12,5.26-24.1,10.07-35.75,16C61.57,58.23,53.69,61.4,46,64.88c-5.3,2.39-11.24,3.68-15.39,8.24a7,7,0,0,0-3.92,3.38c-2.13,1-3.23,2.89-4.43,4.7-5.82,8.77-4,19.85,7.87,23.42,4.17,1.25,8.26,2.79,12.38,4.2.71-.22,1.35-.28,1.65.6C63,115.63,82,121.63,100.41,129.27c-27.68,4.39-54.22-2-81.37-9.15l8.13,29.93c4.2,1.81,7.43,4.56,12,4.54,20.27-.1,40.55,0,60.92,0,2.25-2.24,4.56-4.61,6.94-6.88s4.53-5.32,7.6-7.1c2.6-4.12,6.2-7.37,9.72-10.62a32.61,32.61,0,0,0,9.57-16.77C136.61,102.18,132.51,94.84,121.73,91.55Zm9.67,19.66a22.49,22.49,0,0,1-6.7,11.89c-9.89,8.77-19.85,17.45-29.3,25.74H29.73a232,232,0,0,1-6.55-24.45c3.32.73,6,1.25,8.66,1.91,20.38,5,40.94,8.52,62.05,7.17,4-.25,7.91-.57,11.27-2.91,1.19-5.46.67-6.73-4.32-8.35-5.64-1.82-11.39-3.31-17.1-4.94Q59,110.21,34.27,103.15a31.51,31.51,0,0,1-5-1.66c-8.06-3.82-10-11-5.08-18.51,1.09-1.64,2.32-3.18,3.48-4.77l3.93-4,39-17.78,55-23.68c-3.87,12.55-7.5,24.35-11.22,36.42-6.07.69-11.95,1.31-17.82,2-16.87,2.11-33.41,5.56-48.88,13C44,86,40,87.59,38.16,91.69c2.16,5,6.35,4.45,10.22,4.32,16.75-.57,33.49-1.27,50.24-1.85q9.59-.33,19.18-.37C128.35,93.75,133.91,100.94,131.4,111.21Z"/><path d="M403.76,55.93a39.9,39.9,0,0,0-26.92,7.94C361.69,75.25,351.32,90.31,344.71,108a11.46,11.46,0,0,0-2.55,6.72c-1,.29-.67,2.18-2.15,1.85-.41-7.48.87-14.93-1.38-22.32-3.84-12.63-14.89-17.66-26.71-11.82a5.66,5.66,0,0,1-1.51.2c-.89-1-1.49-2.57-3.71-3a80.74,80.74,0,0,1-10.59,1c-3.91,0-7.89.13-12.09,2.53,1.17,21,2.34,42.25,3.49,63,5.86,4.78,11.46,5.63,17.56,2.57.87-7.32,1.59-14.3,2.57-21.25s.34-14.1,3.25-20.4a3.21,3.21,0,0,1,3.23,2.23,92.77,92.77,0,0,1,11,34.27c.28,2.42.22,4.87,3.29,5.92,2.25-2.28,3.46-5.1,4.69-7.89s2.23-5.35,3.78-9.08c.11,2.12.18,3,.19,3.87.11,11,6.94,16.29,17.76,14.05a51,51,0,0,0,22.35-10.7c3.49-2.84,5.52-7.3,10.23-9.4.32,4.21-.57,7.83-1.07,11.51a26.1,26.1,0,0,1-25.95,22.29c-1.65,0-3.54-1.09-4.8,1,2.65,2.35,4.29,5.66,7.3,7.67l3.16,2c3.38,4,7.64,4.43,12.38,3.14,11.77-3.23,20-10.84,26.3-20.95,2.35-4.65,4.15-9.41,4.14-14.78q0-36,.17-72.11A20.57,20.57,0,0,0,403.76,55.93Zm-75.9,86.6c-2.13-11.12-5.16-21.74-10.14-31.81-2.45-4.94-5.64-8.77-11.84-10.35-2.39,14.78-3.31,29.57-5.16,44.48a24.75,24.75,0,0,1-10.87.57c-1.39-20.53-2.69-40.84-3.22-62,7.2.34,13.52-1.82,20.13-1.4,1.44,2.75-.71,5.36.41,8.2,1.93-.66,2.71-2.56,4.05-3.76,8.84-8,18.91-5.44,22.67,5.91a37.8,37.8,0,0,1,1.74,10.37A89.54,89.54,0,0,1,327.86,142.53Zm38.93,31.54-2.69-2.57-3.92-4.78c11.08-.3,19-5.56,24.9-14.17a14.29,14.29,0,0,0,2.67-6.55c1.31-10,3-19.88,4.67-31-4.2,3.38-6.11,7.12-8.69,10.22a87.84,87.84,0,0,1-23,19.59c-4.93,2.91-10.22,5.3-16.28,3-5.62-3.85-6.91-9.09-5.15-15.53,1.51-5.49,2.64-11.09,3.94-16.63L346,109c4.56-9.24,9.09-18.52,15.39-26.75C370,71.06,380.16,62,394.43,58.75a24.07,24.07,0,0,1,4.56-.54c1.5,0,3.09-.39,4.45.67,1.37,1.45,1.06,3.24,1.06,5q0,37.6.12,75.22C404.69,157.9,384.49,176.41,366.79,174.07Z"/><path d="M393.77,89.31c-14.49-3.82-45.15,15.11-49.2,30.44a13.46,13.46,0,0,0,5.54,1.87c12.09,1.1,23.28-1.21,32.71-9.25,3.21-2.74,7.57-4.51,8.79-9.19C394.92,99.78,395.82,94.06,393.77,89.31Zm-2.19,13.86c-1.83-.29-2.72,1.07-3.77,2.16a47,47,0,0,1-28.08,14.52c-3.48.48-6.91.8-10.57-1.36a83.83,83.83,0,0,1,42.1-26.28C394.29,96.49,390.86,99.78,391.58,103.17Z"/><path d="M249.94,107.79c-7.46,2.19-13.94,6.38-20.22,10.84-1.26.9-2.57,1.77-2.61,3.56,4.21,7.86,10.59,11.09,18.91,9.32a25.87,25.87,0,0,0,15.87-9.78c1.44-.65,1.59-2.07,2-3.32C264.79,110.34,258.34,105.33,249.94,107.79Zm12.49,9.39c-.59,1.39-1.52,2.73-.76,4.36-2.56-.92-3.19,1.73-4.78,2.61-5.06,2.77-10.23,5-16.52,3.82-2.37-1.66-5.52-2.71-8.49-5.64,7.93-5.59,14.87-11.54,24.78-11.31C260.59,111.11,262.85,112.94,262.43,117.18Z"/><path class="cls-7" d="M461.41,97.5c-5.53,12.43-25,20.21-37.47,16.42,6.34-10.63,15.35-17.31,27.36-19.59C454.74,93.68,458.94,92.69,461.41,97.5Z"/><text class="cls-8" transform="translate(181.32 44.03)">M<tspan class="cls-9" x="24.91" y="0">Y</tspan></text><path d="M457.91,91c-15.62-2.86-34.05,8.72-38.69,24.8,22.44,3.28,40.45-4.62,44.55-19.35A6.74,6.74,0,0,0,457.91,91Zm-34,23c6.34-10.63,15.35-17.31,27.36-19.59,3.44-.65,7.64-1.64,10.11,3.17C455.88,109.93,436.43,117.71,423.94,113.92Z"/></svg>