<svg id="Calque_1" data-name="Calque 1" xmlns="http://www.w3.org/2000/svg" viewBox="0 0 500 241"><defs><style>.cls-1{fill:#f04c53;}.cls-2{font-size:31.78px;font-family:Overpass-Bold, Overpass;font-weight:700;letter-spacing:-0.02em;}.cls-3{letter-spacing:-0.04em;}.cls-4{font-size:71.5px;font-family:Overpass-Regular, Overpass;letter-spacing:0.01em;}.cls-5{letter-spacing:0.02em;}.cls-6{letter-spacing:-0.01em;}.cls-7{letter-spacing:0.02em;}</style></defs><rect class="cls-1" x="63.11" y="78.26" width="425.01" height="129.75"/><path d="M114.3,26.47l3.61-1c2.82,1.25,4.32,4.63,3.25,8.49a193.89,193.89,0,0,1-6,19.47l-6.49,19.2c-25.51.58-50.45,3.19-74.05,14.73,1.61,1.94,3,1.33,4.16,1.3,17.13-.5,34.26-1,51.38-1.66,6.8-.25,13.58-.79,20.37-1.2,1.06.25,2.15.44,3.19.75,10.78,3.29,14.88,10.63,12.17,21.63A32.61,32.61,0,0,1,116.33,125c-3.52,3.25-7.12,6.5-9.72,10.62-3.07,1.78-5.09,4.71-7.6,7.1s-4.69,4.64-6.94,6.88c-20.37,0-40.65-.06-60.92,0-4.55,0-7.78-2.73-12-4.54L11,115.12c27.15,7.17,53.69,13.54,81.37,9.15C74,116.63,55,110.63,36.11,104.42c-.3-.88-.94-.82-1.65-.6-4.12-1.41-8.21-2.95-12.38-4.2C10.18,96.05,8.39,85,14.21,76.2c1.2-1.81,2.3-3.75,4.43-4.7l1.06,1.71c-1.16,1.59-2.39,3.13-3.48,4.77-4.95,7.46-3,14.69,5.08,18.51a31.51,31.51,0,0,0,5,1.66Q51,105.23,75.74,112.27c5.71,1.63,11.46,3.12,17.1,4.94,5,1.62,5.51,2.89,4.32,8.35-3.36,2.34-7.32,2.66-11.27,2.91-21.11,1.35-41.67-2.13-62-7.17-2.65-.66-5.34-1.18-8.66-1.91a232,232,0,0,0,6.55,24.45H87.4c9.45-8.29,19.41-17,29.3-25.74a22.49,22.49,0,0,0,6.7-11.89c2.51-10.27-3.05-17.46-13.6-17.42q-9.6,0-19.18.37c-16.75.58-33.49,1.28-50.24,1.85-3.87.13-8.06.66-10.22-4.32C32,82.59,36,81,39.68,79.2c15.47-7.39,32-10.84,48.88-13,5.87-.73,11.75-1.35,17.82-2,3.72-12.07,7.35-23.87,11.22-36.42l-55,23.68L61.4,49.93C73.05,44,85.2,39.21,97.15,34l12.79-5.61Z"/><path d="M354.93,167.79c-3-2-4.65-5.32-7.3-7.67,1.26-2,3.15-1,4.8-1a26.1,26.1,0,0,0,25.95-22.29c.5-3.68,1.39-7.3,1.07-11.51-4.71,2.1-6.74,6.56-10.23,9.4a51,51,0,0,1-22.35,10.7c-10.82,2.24-17.65-3.08-17.76-14.05,0-.88-.08-1.75-.19-3.87-1.55,3.73-2.61,6.43-3.78,9.08s-2.44,5.61-4.69,7.89c-3.07-1.05-3-3.5-3.29-5.92a92.77,92.77,0,0,0-11-34.27,3.21,3.21,0,0,0-3.23-2.23c-2.91,6.3-2.27,13.53-3.25,20.4s-1.7,13.93-2.57,21.25c-6.1,3.06-11.7,2.21-17.56-2.57-1.15-20.79-2.32-42-3.49-63,4.2-2.4,8.18-2.5,12.09-2.53a80.74,80.74,0,0,0,10.59-1c2.22.48,2.82,2.08,3.71,3a5.66,5.66,0,0,0,1.51-.2c11.82-5.84,22.87-.81,26.71,11.82,2.25,7.39,1,14.84,1.38,22.32,1.48.34,1.16-1.56,2.15-1.85l1.13.87c-1.3,5.54-2.43,11.14-3.94,16.63-1.76,6.44-.47,11.68,5.15,15.53,6.06,2.32,11.35-.07,16.28-3a87.84,87.84,0,0,0,23-19.59c2.58-3.1,4.49-6.84,8.69-10.22-1.71,11.16-3.36,21.08-4.67,31a14.29,14.29,0,0,1-2.67,6.55c-5.94,8.61-13.82,13.87-24.9,14.17l3.92,4.78Zm-35.07-30.26a89.54,89.54,0,0,0,7.77-39.78,37.8,37.8,0,0,0-1.74-10.37c-3.76-11.35-13.83-13.86-22.67-5.91-1.34,1.2-2.12,3.1-4.05,3.76-1.12-2.84,1-5.45-.41-8.2-6.61-.42-12.93,1.74-20.13,1.4.53,21.15,1.83,41.46,3.22,62a24.75,24.75,0,0,0,10.87-.57c1.85-14.91,2.77-29.7,5.16-44.48,6.2,1.58,9.39,5.41,11.84,10.35C314.7,115.79,317.73,126.41,319.86,137.53Z"/><path d="M142.53,143.09c-6.69-2.44-9.16-5.77-9.21-13.3-.1-13.45,0-26.89,0-40.34.07-18.07.15-36.15.34-54.22.06-5.49.53-11,.8-16.29,12-7,25.7-12.15,30.85-11.21C168.86,20.85,162.89,34,164,47c3.35,1.65,6-1.54,8.88,0,3.76,6.18,3.76,6.18,1.1,26.12-1.72,1.8-4.09,1-6.17,1.49s-3.86.89-6.4,1.48c-2.42,15.12-3.39,30.66-5.08,46.08,1.3,1.89,3.38.46,4.9,1.27l0,0c-2.51,2.52-5.43,3.4-9.63,2.13.73-18,3-35.75,4.48-53.56,4.55-1.74,9-1.46,13.51-2.32.63-7,1.23-13.63,1.86-20.55-4.74.2-8.54,1.85-13.05,1,1.15-13.57,2.29-26.95,3.51-41.27L136.05,19.73c0,2.23,0,4,0,5.75-.12,34-.1,67.91-.47,101.87-.07,6.66,2,11.53,7.56,15Z"/><path d="M252.35,73c-4-1.69-8-3.63-12.23-4.73-7.28-1.87-13.93,0-20.06,3.24-2.24.33-3.63-.86-5.13-1.76-2.47-5.61.78-15.43,6-18.1s10.52-5.3,16.75-5.4a33.16,33.16,0,0,1,19.78,6.2c6.45,4.45,10,10.18,9.73,18.84-.56,18.92.07,37.88.09,56.82,0,5.21,1.94,10.4.21,16a98.4,98.4,0,0,1-18.12.15c-2.32-1.6-1.78-3.78-2.95-5.09-19.64,6.65-26.15,5.53-34.47-5.89-1.39-5.68.14-10.85,2.79-15.82l1.11.86c-.51,1.92-1.09,3.81-1.5,5.74-2.28,10.7,5.85,18.74,16.56,16.57,5.3-1.07,9.91-3.52,14.45-6.24,1.24-.75,2.12-2.43,4.09-1.67,1.4,2.72-.73,6.05,1,8.5h12V85.42c.25-8,.61-16-.68-23.94-.36-3.72-3.16-5.64-5.85-7.44a32.41,32.41,0,0,0-14.51-5.54,6.71,6.71,0,0,0-5.77.27,39,39,0,0,0-17.72,8.06c-.55,3.58-1.72,6.93-.5,10.78,13.12-7,25.1-6.07,35.67,4.69Z"/><path d="M425.76,76.81c9.11-5.65,18.57-8.69,29.2-4.27a28.41,28.41,0,0,1,11.6,9.14v34.45c-1.68,2.5-4.19,1-6.07,2.74,2.6,3.14,5.68,6.36,4.87,11.57a44.57,44.57,0,0,1-34.29,10.8c-6.74-.62-12.32-4.41-17-9.35-1.23-1.32-2.14-2.81-1.42-4.75v0c13.39,16.74,34,12.06,47.44.79a12,12,0,0,0-1.64-6.85c-21.79,9.55-34.16,9.2-43.08-1.52l46-6.12v-34c-6.18-5.41-9.51-6.56-17.1-6.7-6.42-.12-12.06,2.13-17.58,5ZM454,119.68c-9.47,1.3-19.25.7-28.34,4.32C435.79,127.54,445.18,125.65,454,119.68Z"/><path d="M396.77,152c-6.28,10.11-14.53,17.72-26.3,20.95-4.74,1.29-9,.84-12.38-3.14.24-.25.47-.51.7-.76,17.7,2.34,37.9-16.17,37.83-35q-.14-37.62-.12-75.22c0-1.75.31-3.54-1.06-5-1.36-1.06-2.95-.71-4.45-.67a24.07,24.07,0,0,0-4.56.54C372.16,57,362,66.06,353.38,77.27,347.08,85.5,342.55,94.78,338,104l-1.28-1c6.61-17.69,17-32.75,32.13-44.13a39.9,39.9,0,0,1,26.92-7.94,20.57,20.57,0,0,1,5.32,14.2q-.22,36.06-.17,72.11C400.92,142.61,399.12,147.37,396.77,152Z"/><path d="M196.81,96.68c.48,17.32-1.59,33-1.39,48.61-4.65,3-9.13,1-13.08,1.73l-6.46-4c-1.29-20.56-2.59-41.34-3.94-62.81,7.12-2,14.28-3.48,21-3.6,2.72.86,3,3.5,5.6,4.11,6.89-1.13,14.77-4.84,20.7,4.46,1.86,13.9-4.5,25.53-12.95,37.35C199.75,115.12,202.07,105.25,196.81,96.68Zm8.54,21.14c5.5-8.39,8.54-16.31,9.58-24.89,1.2-9.89-5.15-14.33-14.47-10.49-2.51,1-4.35,3.51-7.27,3.69-1-2.53.51-5.18-1.68-7.73-5.41.94-11.2,1.46-17.1,3.3,1.18,20.14,2.34,40,3.51,60a47.31,47.31,0,0,0,12.13-.35c.44-8.2.85-16.08,1.31-23.95.48-8-.18-16.17,1.46-24,5.61-.62,6.9.16,8,4.7C202.31,104.32,203.67,110.52,205.35,117.82Z"/><path d="M161.23,123.41c.47-2.42,1.8-3.88,5-4.07,5.14,6.82,2.69,14.26,1.55,21.89-8.29,4.51-16.36,8-25.25,1.86l.61-.77c7.93,2,14.4-1.22,20.56-5.53.23-4.95,1.75-9.52,1-14.39l-3.45,1Z"/><path d="M412.69,127.14c-3.13.67-3.5-2.08-4.49-3.8-6.14-10.73-4.84-24,5.12-35a7.9,7.9,0,0,1,.81.62c-8.94,12.4-10.42,25.09-1.44,38.18Z"/><path d="M222.58,104a72.1,72.1,0,0,1,26.76-22.33l.86,1a121.67,121.67,0,0,0-26.53,22.36Z"/><path d="M413.32,88.36c2.31-5.83,7.2-8.88,12.44-11.55l1,1A60.33,60.33,0,0,0,414.13,89,7.9,7.9,0,0,0,413.32,88.36Z"/><path d="M214.79,117.5A33.42,33.42,0,0,1,222.58,104l1.09,1-7.77,13.3Z"/><path d="M249.34,81.71c2.24-1.95,6.36-2.79,4.24-7.28l.87-.94A5,5,0,0,1,255.7,80a17,17,0,0,1-5.5,2.75Z"/><path d="M334.16,109.72a11.46,11.46,0,0,1,2.55-6.72l1.28,1-2.7,6.57Z"/><path d="M253.58,74.43A1.64,1.64,0,0,1,252.35,73l.76-.72,1.34,1.19Z"/><path d="M22.56,68.12c4.15-4.56,10.09-5.85,15.39-8.24,7.74-3.48,15.62-6.65,23.45-10l1.24,1.54-39,17.78Z"/><path d="M18.64,71.5a7,7,0,0,1,3.92-3.38l1.07,1.13-3.93,4Z"/><path d="M358.09,169.83l-3.16-2,1.17-1.29,2.69,2.57C358.56,169.32,358.33,169.58,358.09,169.83Z"/><path d="M383.61,98.17c-1.22,4.68-5.57,6.46-8.79,9.2-9.43,8-20.62,10.35-32.71,9.25a13.46,13.46,0,0,1-5.54-1.87c4.05-15.33,34.71-34.26,49.2-30.44,2.05,4.76,1.15,10.5-2.19,13.89-.75-3.39,2.72-6.69-.32-11a83.83,83.83,0,0,0-42.1,26.28c3.66,2.16,7.09,1.84,10.57,1.36a47,47,0,0,0,28.08-14.52C380.86,99.24,381.76,97.86,383.61,98.17Z"/><path d="M253.89,116.73A25.87,25.87,0,0,1,238,126.51c-8.32,1.77-14.7-1.46-18.91-9.32,0-1.79,1.35-2.66,2.61-3.56,6.28-4.46,12.76-8.65,20.22-10.84,8.4-2.46,14.85,2.55,14,10.62l-1.47-1.23c.42-4.24-1.84-6.07-5.77-6.16-9.91-.23-16.85,5.72-24.78,11.31,3,2.93,6.12,4,8.49,5.64,6.29,1.16,11.46-1,16.52-3.82,1.59-.88,2.22-3.53,4.78-2.61Z"/><path d="M255.9,113.41c-.42,1.25-.57,2.67-2,3.32l-.22-.19c-.76-1.63.17-3,.76-4.36Z"/><path d="M411.22,110.77c4.64-16.08,23.07-27.66,38.69-24.8a6.74,6.74,0,0,1,5.86,5.45C451.67,106.15,433.66,114.05,411.22,110.77ZM453.41,92.5c-2.47-4.81-6.67-3.82-10.11-3.17-12,2.28-21,9-27.36,19.59C428.43,112.71,447.88,104.93,453.41,92.5Z"/><text class="cls-2" transform="translate(174.32 31.03)">M<tspan class="cls-3" x="24.91" y="0">Y</tspan></text><text class="cls-4" transform="translate(55.62 232.57)">C<tspan class="cls-5" x="46.76" y="0">OLL</tspan><tspan class="cls-6" x="182.53" y="0">E</tspan><tspan x="224.42" y="0">C</tspan><tspan class="cls-7" x="271.18" y="0">TION</tspan></text></svg>